<?xml version="1.0" encoding="UTF-8" standalone="no"?>
<!--?xml version="1.0" standalone="no"?-->

<svg
   xmlns:dc="http://purl.org/dc/elements/1.1/"
   xmlns:cc="http://creativecommons.org/ns#"
   xmlns:rdf="http://www.w3.org/1999/02/22-rdf-syntax-ns#"
   xmlns:svg="http://www.w3.org/2000/svg"
   xmlns="http://www.w3.org/2000/svg"
   xmlns:sodipodi="http://sodipodi.sourceforge.net/DTD/sodipodi-0.dtd"
   xmlns:inkscape="http://www.inkscape.org/namespaces/inkscape"
   version="1.0"
   width="300.000000pt"
   height="295.000000pt"
   viewBox="0 0 300.000000 295.000000"
   preserveAspectRatio="xMidYMid meet"
   id="svg3069"
   inkscape:version="0.48.5 r10040"
   sodipodi:docname="computer-network-icon.svg">
  <defs
     id="defs3113" />
  <sodipodi:namedview
     pagecolor="#ffffff"
     bordercolor="#666666"
     borderopacity="1"
     objecttolerance="10"
     gridtolerance="10"
     guidetolerance="10"
     inkscape:pageopacity="0"
     inkscape:pageshadow="2"
     inkscape:window-width="1362"
     inkscape:window-height="729"
     id="namedview3111"
     showgrid="false"
     inkscape:zoom="1.4779661"
     inkscape:cx="187.5"
     inkscape:cy="184.375"
     inkscape:window-x="0"
     inkscape:window-y="18"
     inkscape:window-maximized="0"
     inkscape:current-layer="svg3069" />
  <metadata
     id="metadata3071">
    <rdf:rdf>
      <rdf:description
         dc:title="computer network icon"
         dc:publisher="Hiox"
         dc:date="2015-03-19"
         dc:format="image/svg+xml"
         dc:language="en">
        <dc:creator>
          <rdf:bag>
            <rdf:li>svgimages.com</rdf:li>
          </rdf:bag>
        </dc:creator>
      </rdf:description>
    </rdf:rdf>
    <rdf:RDF>
      <cc:Work
         rdf:about="">
        <dc:format>image/svg+xml</dc:format>
        <dc:type
           rdf:resource="http://purl.org/dc/dcmitype/StillImage" />
        <dc:title></dc:title>
      </cc:Work>
    </rdf:RDF>
  </metadata>
  <g
     transform="translate(0.000000,295.000000) scale(0.100000,-0.100000)"
     fill="#111311"
     stroke="none"
     id="g3073">
    <path
       d="M1182 2908 c-17 -17 -17 -269 0 -286 8 -8 46 -12 105 -12 86 0 93 -1 93 -20 0 -19 -7 -20 -99 -20 -112 0 -111 1 -111 -80 0 -71 13 -80 121 -80 l89 0 0 -180 0 -180 -28 0 c-89 0 -249 -64 -332 -131 -19 -16 -38 -29 -41 -29 -9 0 -437 277 -461 298 -11 9 -18 33 -20 66 l-3 51 -214 3 c-149 2 -218 -1 -227 -9 -18 -14 -19 -120 -2 -137 9 -9 73 -12 225 -12 l213 0 228 -147 c125 -80 229 -147 231 -149 1 -1 -9 -15 -23 -31 -15 -15 -44 -63 -66 -105 -35 -70 -47 -111 -64 -218 l-6 -35 -137 1 c-137 1 -138 1 -141 25 -7 44 -19 49 -123 49 -81 0 -99 3 -99 15 0 12 17 15 94 15 127 0 126 -1 126 151 0 66 -5 129 -10 140 -10 18 -23 19 -223 19 -152 0 -216 -3 -225 -12 -15 -15 -17 -251 -2 -279 9 -17 22 -19 105 -19 78 0 95 -3 95 -15 0 -12 -16 -15 -88 -15 -55 0 -92 -4 -100 -12 -17 -17 -16 -133 2 -147 17 -15 401 -14 429 0 9 6 17 16 17 24 0 13 24 15 140 15 137 0 140 0 144 -22 2 -13 9 -52 16 -87 14 -77 48 -157 96 -223 19 -28 34 -51 32 -52 -2 -2 -105 -64 -229 -139 l-226 -137 -92 0 c-74 0 -91 3 -91 15 0 12 15 15 68 16 143 2 142 1 142 159 0 170 15 160 -235 160 -172 0 -206 -2 -219 -16 -13 -12 -16 -40 -16 -144 0 -127 1 -130 25 -146 18 -12 43 -15 102 -13 67 3 78 1 81 -13 3 -15 -9 -18 -95 -20 l-98 -3 0 -75 0 -75 214 -3 c149 -2 218 1 227 9 9 7 14 31 14 63 l0 51 230 139 229 139 53 -41 c75 -58 175 -102 273 -120 l85 -16 0 -143 0 -143 -86 0 c-128 0 -124 5 -124 -155 0 -167 -2 -165 121 -165 72 0 89 -3 89 -15 0 -12 -17 -15 -93 -15 -59 0 -97 -4 -105 -12 -16 -16 -16 -120 0 -136 17 -17 429 -17 446 0 16 16 16 120 0 136 -8 8 -47 12 -110 12 -80 0 -98 3 -98 15 0 12 16 15 86 15 128 0 124 -5 124 158 0 94 -4 142 -12 150 -8 8 -46 12 -105 12 l-93 0 0 145 c0 144 0 145 23 145 96 1 265 67 345 135 l42 37 73 -46 c39 -25 144 -92 232 -149 l160 -104 5 -49 5 -49 225 0 225 0 3 63 c4 88 -1 92 -114 92 -77 0 -94 3 -94 15 0 12 16 15 88 15 121 0 122 1 122 158 0 171 13 162 -233 162 -252 0 -237 10 -237 -160 0 -162 -1 -160 121 -160 71 0 89 -3 89 -14 0 -12 -22 -15 -102 -18 l-103 -3 -204 132 c-112 73 -208 136 -213 141 -5 5 12 39 36 77 53 80 84 166 93 253 l6 62 143 0 c135 0 144 -1 144 -19 0 -10 7 -22 16 -25 9 -3 107 -6 219 -6 162 0 205 3 214 14 7 9 11 40 9 78 l-3 63 -102 3 c-95 2 -103 4 -103 22 0 18 7 20 95 20 83 0 96 2 105 19 5 11 10 74 10 140 0 95 -3 123 -16 135 -13 14 -48 16 -224 16 -197 0 -210 -1 -220 -19 -15 -28 -13 -264 2 -279 8 -8 46 -12 105 -12 86 0 93 -2 93 -20 0 -18 -8 -20 -97 -22 l-98 -3 -5 -29 -5 -29 -140 1 -140 1 -7 58 c-3 32 -14 81 -23 108 -20 59 -78 167 -100 185 -8 7 -15 18 -15 24 0 6 107 75 238 154 l238 142 187 0 c111 0 196 4 208 10 16 9 19 22 19 75 0 80 -7 85 -125 85 -65 0 -86 3 -83 13 3 8 36 14 97 17 67 4 94 9 101 20 13 20 13 246 0 271 -10 18 -23 19 -216 19 -122 0 -213 -4 -225 -10 -17 -10 -19 -22 -19 -143 0 -90 4 -137 12 -145 8 -8 47 -12 110 -12 80 0 98 -3 98 -15 0 -12 -17 -15 -93 -15 -59 0 -97 -4 -105 -12 -7 -7 -12 -39 -12 -72 l0 -61 -233 -141 -232 -140 -64 47 c-79 58 -172 97 -268 112 l-73 12 0 177 0 178 89 0 c109 0 121 8 121 83 0 29 -4 57 -8 64 -5 8 -42 13 -102 15 -81 3 -95 6 -98 21 -3 15 6 17 85 17 56 0 93 4 101 12 17 17 17 269 0 286 -17 17 -419 17 -436 0z m423 -143 l0 -130 -205 0 -205 0 -3 124 c-2 93 1 127 10 133 7 4 101 7 208 5 l195 -2 0 -130z m1120 -270 l0 -130 -200 0 -200 0 -7 120 c-4 66 -5 126 -3 133 4 10 50 12 207 10 l203 -3 0 -130z m-1125 35 c0 -6 -32 -10 -75 -10 -43 0 -75 4 -75 10 0 6 32 10 75 10 43 0 75 -4 75 -10z m-1137 -265 c-3 -11 -107 -19 -130 -11 -8 3 -11 11 -8 16 9 14 141 9 138 -5z m2257 -5 c0 -6 -30 -10 -70 -10 -40 0 -70 4 -70 10 0 6 30 10 70 10 40 0 70 -4 70 -10z m-1340 -395 l0 -135 -28 0 c-27 0 -137 25 -153 36 -10 6 27 82 79 164 39 62 48 70 80 70 22 0 22 -2 22 -135z m117 113 c28 -32 100 -158 108 -189 6 -23 2 -27 -35 -38 -22 -7 -63 -15 -90 -18 l-50 -6 0 137 c0 136 0 136 23 136 13 0 33 -10 44 -22z m179 -45 c55 -29 105 -73 98 -84 -5 -9 -98 -59 -109 -59 -3 0 -16 24 -29 53 -14 28 -36 71 -50 93 l-26 42 38 -12 c20 -6 56 -21 78 -33z m-436 31 c0 -3 -9 -19 -20 -34 -12 -16 -32 -54 -46 -84 -14 -31 -28 -56 -30 -56 -11 0 -103 50 -108 59 -9 14 51 60 119 93 58 27 85 34 85 22z m-765 -239 l0 -130 -200 0 -200 0 -3 119 c-1 66 0 126 2 133 4 11 46 13 203 11 l198 -3 0 -130z m2250 0 l0 -130 -199 -3 c-153 -2 -201 1 -208 10 -13 21 -10 232 4 246 9 9 64 12 208 10 l195 -3 0 -130z m-1663 50 l66 -35 -23 -79 c-13 -44 -26 -104 -30 -135 l-7 -56 -109 0 -109 0 0 28 c0 43 28 140 56 196 28 56 71 116 82 116 4 0 37 -16 74 -35z m791 3 c54 -72 106 -212 107 -285 0 -22 -3 -23 -109 -23 l-109 0 -6 48 c-4 26 -17 83 -29 127 -12 44 -22 84 -22 88 0 9 113 74 132 76 7 0 23 -14 36 -31z m-588 -81 c33 -9 72 -19 88 -22 l27 -5 0 -100 0 -100 -130 0 c-149 0 -141 -8 -116 105 24 111 38 147 55 142 9 -3 43 -12 76 -20z m393 -54 c11 -43 23 -99 27 -125 l6 -48 -130 0 -131 0 0 100 0 100 28 5 c15 3 56 14 92 24 36 10 70 19 76 20 7 0 21 -34 32 -76z m-1188 -153 c0 -6 -30 -10 -70 -10 -40 0 -70 4 -70 10 0 6 30 10 70 10 40 0 70 -4 70 -10z m2250 0 c0 -6 -30 -10 -70 -10 -40 0 -70 4 -70 10 0 6 30 10 70 10 40 0 70 -4 70 -10z m-1643 -145 c11 -65 33 -151 47 -185 4 -11 -14 -25 -66 -53 l-73 -39 -23 29 c-55 67 -111 215 -112 296 l0 28 107 -3 107 -3 13 -70z m303 -29 l0 -105 -47 -7 c-27 -4 -72 -15 -102 -25 -30 -11 -55 -19 -56 -19 -6 0 -45 160 -51 208 l-7 52 132 0 131 0 0 -104z m305 94 c7 -11 -10 -110 -33 -193 -14 -52 -18 -58 -36 -51 -12 3 -58 16 -103 28 l-83 21 0 102 0 103 124 0 c71 0 127 -4 131 -10z m275 -18 c0 -73 -60 -231 -113 -296 l-23 -28 -69 37 c-39 20 -71 38 -73 39 -1 2 6 27 16 57 11 30 25 91 32 137 l14 82 108 0 108 0 0 -28z m-580 -373 l0 -141 -27 6 c-16 4 -38 19 -51 34 -33 40 -104 181 -99 196 3 7 31 18 64 24 32 6 67 13 78 16 11 2 23 4 28 5 4 0 7 -62 7 -140z m168 119 c29 -5 56 -16 59 -23 5 -15 -67 -158 -101 -199 -12 -14 -33 -28 -48 -32 l-28 -6 0 141 0 141 33 -6 c17 -3 56 -10 85 -16z m-308 -212 c20 -25 -6 -20 -78 14 -64 30 -132 76 -132 90 0 4 26 21 57 38 l58 31 41 -79 c22 -44 47 -86 54 -94z m540 104 c0 -14 -68 -60 -132 -90 -81 -39 -96 -39 -68 -1 11 17 34 59 51 95 l31 66 59 -31 c32 -18 59 -35 59 -39z m-1302 -77 l-3 -128 -202 -3 -201 -2 -4 77 c-2 42 -1 101 0 130 l4 53 204 0 205 0 -3 -127z m2252 -3 l0 -130 -204 0 c-177 0 -205 2 -210 16 -8 20 -8 208 0 228 5 14 33 16 210 16 l204 0 0 -130z m-2262 -232 c-3 -8 -29 -14 -71 -16 -55 -2 -67 0 -67 13 0 12 14 15 71 15 52 0 70 -3 67 -12z m2252 -3 c0 -12 -14 -15 -70 -15 -56 0 -70 3 -70 15 0 12 14 15 70 15 56 0 70 -3 70 -15z m-1115 -335 l0 -125 -205 0 -205 0 -3 114 c-1 63 0 121 2 128 4 11 47 13 208 11 l203 -3 0 -125z m-7 -232 c-5 -14 -109 -24 -135 -14 -32 13 3 26 68 26 52 0 70 -3 67 -12z"
       id="node1"
       class="node" />
    <path
       d="M58 2649 c-16 -9 -18 -27 -18 -149 0 -127 2 -140 19 -150 26 -13 396 -13 422 0 17 10 19 23 19 150 0 125 -2 140 -18 149 -25 13 -402 13 -424 0z m417 -149 l0 -125 -205 0 -205 0 -3 114 c-1 63 0 121 2 128 4 11 47 13 208 11 l203 -3 0 -125z"
       id="node2"
       class="node" />
  </g>
  <g
     transform="translate(0.000000,295.000000) scale(0.100000,-0.100000)"
     fill="#A5A7A3"
     stroke="none"
     id="g3077">
    <path
       d="M1202 2892 c-9 -6 -12 -40 -10 -133 l3 -124 205 0 205 0 0 130 0 130 -195 2 c-107 2 -201 -1 -208 -5z"
       id="node4"
       class="node" />
    <path
       d="M2315 2618 c-2 -7 -1 -67 3 -133 l7 -120 200 0 200 0 0 130 0 130 -203 3 c-157 2 -203 0 -207 -10z"
       id="node5"
       class="node" />
    <path
       d="M1450 2530 c0 -6 32 -10 75 -10 43 0 75 4 75 10 0 6 -32 10 -75 10 -43 0 -75 -4 -75 -10z"
       id="node6"
       class="node" />
    <path
       d="M325 2270 c-3 -5 0 -13 8 -16 23 -8 127 0 130 11 3 14 -129 19 -138 5z"
       id="node7"
       class="node" />
    <path
       d="M2580 2260 c0 -6 30 -10 70 -10 40 0 70 4 70 10 0 6 -30 10 -70 10 -40 0 -70 -4 -70 -10z"
       id="node8"
       class="node" />
    <path
       d="M1324 1992 c-30 -19 -139 -217 -125 -226 16 -11 126 -36 153 -36 l28 0 0 135 c0 133 0 135 -22 135 -13 0 -28 -4 -34 -8z"
       id="node9"
       class="node" />
    <path
       d="M1430 1864 l0 -137 50 6 c27 3 68 11 90 18 37 11 41 15 35 38 -8 31 -80 157 -108 189 -11 12 -31 22 -44 22 -23 0 -23 0 -23 -136z"
       id="node10"
       class="node" />
    <path
       d="M1586 1936 c14 -22 36 -65 50 -93 13 -29 26 -53 29 -53 11 0 104 50 109 59 12 20 -97 92 -176 117 l-38 12 26 -42z"
       id="node11"
       class="node" />
    <path
       d="M1155 1942 c-68 -33 -128 -79 -119 -93 5 -9 97 -59 108 -59 2 0 16 25 30 56 14 30 34 68 46 84 36 50 22 53 -65 12z"
       id="node12"
       class="node" />
    <path
       d="M74 1847 c-2 -7 -3 -67 -2 -133 l3 -119 200 0 200 0 0 130 0 130 -198 3 c-157 2 -199 0 -203 -11z"
       id="node13"
       class="node" />
    <path
       d="M2322 1848 c-14 -14 -17 -225 -4 -246 7 -9 55 -12 208 -10 l199 3 0 130 0 130 -195 3 c-144 2 -199 -1 -208 -10z"
       id="node14"
       class="node" />
    <path
       d="M956 1778 c-54 -72 -106 -209 -106 -280 l0 -28 109 0 109 0 7 56 c4 31 17 91 30 135 l23 79 -66 35 c-37 19 -70 35 -74 35 -4 0 -18 -15 -32 -32z"
       id="node15"
       class="node" />
    <path
       d="M1745 1774 c-33 -18 -60 -36 -60 -41 0 -4 10 -44 22 -88 12 -44 25 -101 29 -127 l6 -48 109 0 c126 0 121 -6 94 108 -23 97 -99 234 -128 231 -7 -1 -39 -16 -72 -35z"
       id="node16"
       class="node" />
    <path
       d="M1160 1678 c-18 -59 -39 -158 -40 -185 0 -23 2 -23 130 -23 l130 0 0 100 0 100 -27 5 c-25 5 -125 31 -164 42 -11 3 -19 -8 -29 -39z"
       id="node17"
       class="node" />
    <path
       d="M1550 1699 c-36 -10 -77 -21 -92 -24 l-28 -5 0 -100 0 -100 131 0 130 0 -6 48 c-11 80 -47 202 -59 201 -6 -1 -40 -10 -76 -20z"
       id="node18"
       class="node" />
    <path
       d="M330 1490 c0 -6 30 -10 70 -10 40 0 70 4 70 10 0 6 -30 10 -70 10 -40 0 -70 -4 -70 -10z"
       id="node19"
       class="node" />
    <path
       d="M2580 1490 c0 -6 30 -10 70 -10 40 0 70 4 70 10 0 6 -30 10 -70 10 -40 0 -70 -4 -70 -10z"
       id="node20"
       class="node" />
    <path
       d="M850 1393 c1 -81 57 -229 112 -296 l23 -29 73 39 c52 28 70 42 66 53 -14 34 -36 120 -47 185 l-13 70 -107 3 -107 3 0 -28z"
       id="node21"
       class="node" />
    <path
       d="M1124 1368 c6 -48 45 -208 51 -208 1 0 26 8 56 19 30 10 75 21 102 25 l47 7 0 105 0 104 -131 0 -132 0 7 -52z"
       id="node22"
       class="node" />
    <path
       d="M1430 1317 l0 -102 83 -21 c45 -12 91 -25 103 -28 18 -7 22 -1 36 51 23 83 40 182 33 193 -4 6 -60 10 -131 10 l-124 0 0 -103z"
       id="node23"
       class="node" />
    <path
       d="M1730 1338 c-7 -46 -21 -107 -32 -137 -10 -30 -17 -55 -16 -57 2 -1 34 -19 73 -39 l69 -37 23 28 c53 65 113 223 113 296 l0 28 -108 0 -108 0 -14 -82z"
       id="node24"
       class="node" />
    <path
       d="M1345 1154 c-11 -3 -46 -10 -78 -16 -33 -6 -61 -17 -64 -24 -5 -15 66 -156 99 -196 13 -15 35 -30 51 -34 l27 -6 0 141 c0 78 -3 140 -7 140 -5 -1 -17 -3 -28 -5z"
       id="node25"
       class="node" />
    <path
       d="M1430 1019 l0 -141 28 6 c15 4 36 18 48 32 34 41 106 184 101 199 -5 12 -38 21 -144 39 l-33 6 0 -141z"
       id="node26"
       class="node" />
    <path
       d="M1087 1068 c-31 -17 -57 -34 -57 -38 0 -14 68 -60 132 -90 72 -34 98 -39 78 -14 -7 8 -32 50 -54 94 l-41 79 -58 -31z"
       id="node27"
       class="node" />
    <path
       d="M1631 1034 c-17 -36 -40 -78 -51 -95 -28 -38 -13 -38 68 1 64 30 132 76 132 90 0 4 -27 21 -59 39 l-59 31 -31 -66z"
       id="node28"
       class="node" />
    <path
       d="M68 1027 c-1 -29 -2 -88 0 -130 l4 -77 201 2 202 3 3 128 3 127 -205 0 -204 0 -4 -53z"
       id="node29"
       class="node" />
    <path
       d="M2316 1064 c-8 -20 -8 -208 0 -228 5 -14 33 -16 210 -16 l204 0 0 130 0 130 -204 0 c-177 0 -205 -2 -210 -16z"
       id="node30"
       class="node" />
    <path
       d="M330 715 c0 -13 12 -15 67 -13 42 2 68 8 71 16 3 9 -15 12 -67 12 -57 0 -71 -3 -71 -15z"
       id="node31"
       class="node" />
    <path
       d="M2580 715 c0 -12 14 -15 70 -15 56 0 70 3 70 15 0 12 -14 15 -70 15 -56 0 -70 -3 -70 -15z"
       id="node32"
       class="node" />
    <path
       d="M1194 497 c-2 -7 -3 -65 -2 -128 l3 -114 205 0 205 0 0 125 0 125 -203 3 c-161 2 -204 0 -208 -11z"
       id="node33"
       class="node" />
    <path
       d="M1455 150 c-10 -16 17 -21 80 -18 36 2 60 8 63 16 5 15 -133 17 -143 2z"
       id="node34"
       class="node" />
    <path
       d="M64 2617 c-2 -7 -3 -65 -2 -128 l3 -114 205 0 205 0 0 125 0 125 -203 3 c-161 2 -204 0 -208 -11z"
       id="node35"
       class="node" />
  </g>
</svg>
