<?xml version="1.0" encoding="UTF-8" standalone="no"?>
<!-- Created with Inkscape (http://www.inkscape.org/) -->

<svg
   xmlns:dc="http://purl.org/dc/elements/1.1/"
   xmlns:cc="http://creativecommons.org/ns#"
   xmlns:rdf="http://www.w3.org/1999/02/22-rdf-syntax-ns#"
   xmlns:svg="http://www.w3.org/2000/svg"
   xmlns="http://www.w3.org/2000/svg"
   xmlns:sodipodi="http://sodipodi.sourceforge.net/DTD/sodipodi-0.dtd"
   xmlns:inkscape="http://www.inkscape.org/namespaces/inkscape"
   width="100mm"
   height="100mm"
   viewBox="0 0 100 100"
   version="1.1"
   id="svg2250"
   inkscape:version="0.92.4 (5da689c313, 2019-01-14)"
   sodipodi:docname="love.svg">
  <defs
     id="defs2244" />
  <sodipodi:namedview
     id="base"
     pagecolor="#ffffff"
     bordercolor="#666666"
     borderopacity="1.0"
     inkscape:pageopacity="0.0"
     inkscape:pageshadow="2"
     inkscape:zoom="1.4"
     inkscape:cx="15.483671"
     inkscape:cy="177.97352"
     inkscape:document-units="mm"
     inkscape:current-layer="layer1"
     showgrid="false"
     inkscape:window-width="1920"
     inkscape:window-height="1020"
     inkscape:window-x="0"
     inkscape:window-y="31"
     inkscape:window-maximized="1"
     fit-margin-top="0"
     fit-margin-left="0"
     fit-margin-right="0"
     fit-margin-bottom="0" />
  <metadata
     id="metadata2247">
    <rdf:RDF>
      <cc:Work
         rdf:about="">
        <dc:format>image/svg+xml</dc:format>
        <dc:type
           rdf:resource="http://purl.org/dc/dcmitype/StillImage" />
        <dc:title />
      </cc:Work>
    </rdf:RDF>
  </metadata>
  <g
     inkscape:label="Layer 1"
     inkscape:groupmode="layer"
     id="layer1"
     transform="translate(-87.339287,-59.119049)">
    <rect
       style="fill:#140c84;fill-opacity:1;stroke-width:0.52916664"
       id="rect2795"
       width="100"
       height="100"
       x="87.339287"
       y="59.119049"
       inkscape:export-filename="one love.png"
       inkscape:export-xdpi="300.05865"
       inkscape:export-ydpi="300.05865" />
    <g
       aria-label="ONE"
       transform="matrix(0.46107102,0,0,0.46107102,68.938661,43.087171)"
       style="font-style:normal;font-weight:normal;font-size:40px;line-height:1.25;font-family:sans-serif;letter-spacing:0px;word-spacing:0px;fill:#e13857;fill-opacity:1;stroke:none"
       id="flowRoot2867">
      <path
         d="m 127.79883,133.55078 q -3.29427,0 -5.24089,2.45573 -1.93164,2.45573 -1.93164,6.69336 0,4.22266 1.93164,6.67839 1.94662,2.45572 5.24089,2.45572 3.29427,0 5.21094,-2.45572 1.93164,-2.45573 1.93164,-6.67839 0,-4.23763 -1.93164,-6.69336 -1.91667,-2.45573 -5.21094,-2.45573 z m 0,-2.45573 q 4.70182,0 7.51693,3.15951 2.8151,3.14453 2.8151,8.44531 0,5.28581 -2.8151,8.44531 -2.81511,3.14453 -7.51693,3.14453 -4.7168,0 -7.54688,-3.14453 -2.8151,-3.14453 -2.8151,-8.44531 0,-5.30078 2.8151,-8.44531 2.83008,-3.15951 7.54688,-3.15951 z"
         style="font-style:normal;font-variant:normal;font-weight:500;font-stretch:normal;font-size:30.66666794px;font-family:Ubuntu;-inkscape-font-specification:'Ubuntu Medium';fill:#e13857;fill-opacity:1"
         id="path4569"
         inkscape:connector-curvature="0" />
      <path
         d="m 142.86263,131.49935 h 4.07292 l 9.91276,18.70247 v -18.70247 h 2.93489 v 22.35612 h -4.07291 l -9.91276,-18.70248 v 18.70248 h -2.9349 z"
         style="font-style:normal;font-variant:normal;font-weight:500;font-stretch:normal;font-size:30.66666794px;font-family:Ubuntu;-inkscape-font-specification:'Ubuntu Medium';fill:#e13857;fill-opacity:1"
         id="path4571"
         inkscape:connector-curvature="0" />
      <path
         d="m 165.80273,131.49935 h 14.13542 v 2.54557 h -11.11068 v 6.61849 h 10.64649 v 2.54557 h -10.64649 v 8.10092 h 11.38021 v 2.54557 h -14.40495 z"
         style="font-style:normal;font-variant:normal;font-weight:500;font-stretch:normal;font-size:30.66666794px;font-family:Ubuntu;-inkscape-font-specification:'Ubuntu Medium';fill:#e13857;fill-opacity:1"
         id="path4573"
         inkscape:connector-curvature="0" />
    </g>
    <g
       aria-label="L V"
       transform="matrix(0.65097996,0,0,0.65097996,291.34283,16.120671)"
       style="font-style:normal;font-weight:normal;font-size:40px;line-height:1.75;font-family:sans-serif;letter-spacing:0px;word-spacing:0px;fill:#ffffff;fill-opacity:1;stroke:none"
       id="flowRoot2875">
      <path
         d="m -276.07422,89.695312 h 3.94531 v 25.839848 h 14.19922 v 3.32031 h -18.14453 z"
         style="font-style:normal;font-variant:normal;font-weight:normal;font-stretch:normal;line-height:1.75;font-family:Ubuntu;-inkscape-font-specification:Ubuntu;fill:#ffffff;fill-opacity:1"
         id="path4576"
         inkscape:connector-curvature="0" />
      <path
         d="m -268.55469,188.85547 -11.13281,-29.16016 h 4.12109 l 9.23829,24.55078 9.25781,-24.55078 h 4.10156 l -11.11328,29.16016 z"
         style="font-style:normal;font-variant:normal;font-weight:normal;font-stretch:normal;line-height:1.75;font-family:Ubuntu;-inkscape-font-specification:Ubuntu;fill:#ffffff;fill-opacity:1"
         id="path4578"
         inkscape:connector-curvature="0" />
    </g>
    <path
       style="fill:#ffffff;fill-opacity:1;stroke-width:0.12370276"
       d="m 182.54459,108.55079 h -11.36074 v 1.13652 h 11.36074 z m -80.18495,0 H 91.000067 v 1.13652 h 11.359573 z"
       id="rect2831-5"
       inkscape:connector-curvature="0"
       inkscape:export-filename="one love.png"
       inkscape:export-xdpi="300.05865"
       inkscape:export-ydpi="300.05865" />
    <g
       aria-label="O E"
       transform="matrix(0.65097994,0,0,0.65097994,331.03555,16.328971)"
       style="font-style:normal;font-weight:normal;font-size:40px;line-height:1.75;font-family:sans-serif;letter-spacing:0px;word-spacing:0px;fill:#ffffff;fill-opacity:1;stroke:none"
       id="flowRoot2875-7">
      <path
         d="m -264.23828,92.371094 q -4.29688,0 -6.83594,3.203125 -2.51953,3.203125 -2.51953,8.730471 0,5.50781 2.51953,8.71094 2.53906,3.20312 6.83594,3.20312 4.29687,0 6.79687,-3.20312 2.51954,-3.20313 2.51954,-8.71094 0,-5.527346 -2.51954,-8.730471 -2.5,-3.203125 -6.79687,-3.203125 z m 0,-3.203125 q 6.13281,0 9.80469,4.121093 3.67187,4.101563 3.67187,11.015628 0,6.89453 -3.67187,11.01562 -3.67188,4.10157 -9.80469,4.10157 -6.15234,0 -9.84375,-4.10157 -3.67188,-4.10156 -3.67188,-11.01562 0,-6.914065 3.67188,-11.015628 3.69141,-4.121093 9.84375,-4.121093 z"
         style="font-style:normal;font-variant:normal;font-weight:normal;font-stretch:normal;line-height:1.75;font-family:Ubuntu;-inkscape-font-specification:Ubuntu;fill:#ffffff;fill-opacity:1"
         id="path4581"
         inkscape:connector-curvature="0" />
      <path
         d="m -276.07422,159.69531 h 18.4375 v 3.32031 h -14.49219 v 8.63282 h 13.88672 v 3.32031 h -13.88672 v 10.56641 h 14.84375 v 3.32031 h -18.78906 z"
         style="font-style:normal;font-variant:normal;font-weight:normal;font-stretch:normal;line-height:1.75;font-family:Ubuntu;-inkscape-font-specification:Ubuntu;fill:#ffffff;fill-opacity:1"
         id="path4583"
         inkscape:connector-curvature="0" />
    </g>
    <path
       style="fill:#ffffff;fill-opacity:1;stroke-width:0.12370276"
       d="m 137.90755,153.91809 v -11.36074 h -1.13652 v 11.36074 z m 0,-80.184959 v -11.35956 h -1.13652 v 11.35956 z"
       id="rect2831-5-0"
       inkscape:connector-curvature="0"
       inkscape:export-filename="one love.png"
       inkscape:export-xdpi="300.05865"
       inkscape:export-ydpi="300.05865" />
  </g>
</svg>
