<?xml version="1.0" encoding="UTF-8" standalone="no"?>
<!-- Generator: Adobe Illustrator 17.1.0, SVG Export Plug-In . SVG Version: 6.00 Build 0)  -->

<svg
   xmlns:dc="http://purl.org/dc/elements/1.1/"
   xmlns:cc="http://creativecommons.org/ns#"
   xmlns:rdf="http://www.w3.org/1999/02/22-rdf-syntax-ns#"
   xmlns:svg="http://www.w3.org/2000/svg"
   xmlns="http://www.w3.org/2000/svg"
   xmlns:sodipodi="http://sodipodi.sourceforge.net/DTD/sodipodi-0.dtd"
   xmlns:inkscape="http://www.inkscape.org/namespaces/inkscape"
   version="1.1"
   id="Capa_1"
   x="0px"
   y="0px"
   viewBox="0 0 231.23 253.23"
   xml:space="preserve"
   inkscape:version="0.48.5 r10040"
   width="100%"
   height="100%"
   sodipodi:docname="service.svg"><metadata
     id="metadata3056"><rdf:RDF><cc:Work
         rdf:about=""><dc:format>image/svg+xml</dc:format><dc:type
           rdf:resource="http://purl.org/dc/dcmitype/StillImage" /></cc:Work></rdf:RDF></metadata><defs
     id="defs3054" /><sodipodi:namedview
     pagecolor="#ffffff"
     bordercolor="#666666"
     borderopacity="1"
     objecttolerance="10"
     gridtolerance="10"
     guidetolerance="10"
     inkscape:pageopacity="0"
     inkscape:pageshadow="2"
     inkscape:window-width="1676"
     inkscape:window-height="1011"
     id="namedview3052"
     showgrid="false"
     inkscape:zoom="3.4467399"
     inkscape:cx="92.406161"
     inkscape:cy="208.45786"
     inkscape:window-x="0"
     inkscape:window-y="18"
     inkscape:window-maximized="0"
     inkscape:current-layer="Capa_1" /><g
     id="g3048"
     style="fill:#cccccc"
     transform="translate(0,21.997)"><path
       d="m 230.505,102.78 c -0.365,-3.25 -4.156,-5.695 -7.434,-5.695 -10.594,0 -19.996,-6.218 -23.939,-15.842 -4.025,-9.855 -1.428,-21.346 6.465,-28.587 2.486,-2.273 2.789,-6.079 0.705,-8.721 -5.424,-6.886 -11.586,-13.107 -18.316,-18.498 -2.633,-2.112 -6.502,-1.818 -8.787,0.711 -6.891,7.632 -19.27,10.468 -28.836,6.477 -9.951,-4.187 -16.232,-14.274 -15.615,-25.101 0.203,-3.403 -2.285,-6.36 -5.676,-6.755 -8.637,-1 -17.35,-1.029 -26.012,-0.068 -3.348,0.37 -5.834,3.257 -5.723,6.617 0.375,10.721 -5.977,20.63 -15.832,24.667 -9.451,3.861 -21.744,1.046 -28.621,-6.519 -2.273,-2.492 -6.074,-2.798 -8.725,-0.731 -6.928,5.437 -13.229,11.662 -18.703,18.492 -2.133,2.655 -1.818,6.503 0.689,8.784 8.049,7.289 10.644,18.879 6.465,28.849 -3.99,9.505 -13.859,15.628 -25.156,15.628 -3.666,-0.118 -6.275,2.345 -6.68,5.679 -1.016,8.683 -1.027,17.535 -0.049,26.289 0.365,3.264 4.268,5.688 7.582,5.688 10.07,-0.256 19.732,5.974 23.791,15.841 4.039,9.855 1.439,21.341 -6.467,28.592 -2.473,2.273 -2.789,6.07 -0.701,8.709 5.369,6.843 11.537,13.068 18.287,18.505 2.65,2.134 6.504,1.835 8.801,-0.697 6.918,-7.65 19.295,-10.481 28.822,-6.482 9.98,4.176 16.258,14.262 15.645,25.092 -0.201,3.403 2.293,6.369 5.672,6.755 4.42,0.517 8.863,0.773 13.32,0.773 4.23,0 8.461,-0.231 12.692,-0.702 3.352,-0.37 5.834,-3.26 5.721,-6.621 -0.387,-10.716 5.979,-20.626 15.822,-24.655 9.514,-3.886 21.752,-1.042 28.633,6.512 2.285,2.487 6.063,2.789 8.725,0.73 6.916,-5.423 13.205,-11.645 18.703,-18.493 2.135,-2.65 1.832,-6.503 -0.689,-8.788 -8.047,-7.284 -10.656,-18.879 -6.477,-28.839 3.928,-9.377 13.43,-15.673 23.65,-15.673 l 1.43,0.038 c 3.318,0.269 6.367,-2.286 6.768,-5.671 1.021,-8.691 1.032,-17.533 0.05,-26.29 z m -114.889,79.49 c -36.813,0 -66.654,-29.841 -66.654,-66.653 0,-36.812 29.842,-66.653 66.654,-66.653 36.812,0 66.654,29.841 66.654,66.653 0,12.495 -3.445,24.182 -9.428,34.176 l -29.186,-29.187 c 2.113,-4.982 3.229,-10.383 3.228,-15.957 0,-10.915 -4.251,-21.176 -11.97,-28.893 -7.717,-7.717 -17.978,-11.967 -28.891,-11.967 -3.642,0 -7.267,0.484 -10.774,1.439 -1.536,0.419 -2.792,1.685 -3.201,3.224 -0.418,1.574 0.053,3.187 1.283,4.418 0,0 14.409,14.52 19.23,19.34 0.505,0.505 0.504,1.71 0.433,2.144 l -0.045,0.317 c -0.486,5.3 -1.423,11.662 -2.196,14.107 -0.104,0.103 -0.202,0.19 -0.308,0.296 -0.111,0.111 -0.213,0.218 -0.32,0.328 -2.477,0.795 -8.937,1.743 -14.321,2.225 l 0.001,-0.029 -0.242,0.061 c -0.043,0.005 -0.123,0.011 -0.229,0.011 -0.582,0 -1.438,-0.163 -2.216,-0.94 C 88.1,105.712 74.256,91.967 74.256,91.967 73.014,90.729 71.74,90.469 70.891,90.469 c -1.979,0 -3.751,1.43 -4.309,3.481 -3.811,14.103 0.229,29.273 10.546,39.591 7.719,7.718 17.981,11.968 28.896,11.968 5.574,0 10.975,-1.115 15.956,-3.228 l 29.503,29.503 c -10.358,6.628 -22.658,10.486 -35.867,10.486 z"
       id="path3050"
       inkscape:connector-curvature="0" /></g></svg>